<?xml version="1.0" standalone="no"?>
<!DOCTYPE svg PUBLIC "-//W3C//DTD SVG 20010904//EN"
 "http://www.w3.org/TR/2001/REC-SVG-20010904/DTD/svg10.dtd">
<svg version="1.0" xmlns="http://www.w3.org/2000/svg"
 width="200.000000pt" height="200.000000pt" viewBox="0 0 200.000000 200.000000"
 preserveAspectRatio="xMidYMid meet">
<metadata>
Created by potrace 1.16, written by Peter Selinger 2001-2019
</metadata>
<g transform="translate(0.000000,200.000000) scale(0.100000,-0.100000)"
fill="#000000" stroke="none">
<path d="M765 1817 c-83 -33 -144 -95 -165 -168 -6 -19 -10 -64 -10 -101 l0
-68 -207 0 c-197 0 -210 -2 -248 -23 -22 -12 -50 -38 -62 -56 -22 -32 -23 -44
-23 -195 0 -113 4 -166 12 -174 9 -9 116 -12 418 -12 l406 0 9 33 10 32 95 0
95 0 10 -32 9 -33 407 0 c341 0 408 2 418 14 9 11 11 62 9 178 -3 153 -4 165
-27 197 -45 62 -80 71 -307 71 l-202 0 -4 88 c-5 96 -19 132 -72 185 -67 67
-87 72 -326 74 -148 1 -224 -2 -245 -10z m425 -207 c15 -15 20 -33 20 -75 l0
-55 -210 0 -210 0 0 55 c0 92 7 95 210 95 157 0 172 -2 190 -20z"/>
<path d="M130 901 c-6 -12 -10 -126 -10 -301 0 -230 3 -287 15 -317 21 -50 42
-72 90 -94 38 -17 83 -19 775 -19 692 0 737 2 775 19 48 22 69 44 90 94 12 30
15 87 15 317 0 175 -4 289 -10 301 -10 18 -25 19 -388 19 l-377 0 -13 -30
c-15 -34 -57 -60 -96 -60 -28 0 -82 42 -91 70 -6 19 -18 20 -385 20 -365 0
-380 -1 -390 -19z"/>
</g>
</svg>
